<?xml version="1.0" standalone="no"?>
<!DOCTYPE svg PUBLIC "-//W3C//DTD SVG 20010904//EN"
 "http://www.w3.org/TR/2001/REC-SVG-20010904/DTD/svg10.dtd">
<svg version="1.0" xmlns="http://www.w3.org/2000/svg"
 width="1024.000000pt" height="1024.000000pt" viewBox="0 0 1024.000000 1024.000000"
 preserveAspectRatio="xMidYMid meet">

<g transform="translate(0.000000,1024.000000) scale(0.100000,-0.100000)"
fill="#000000" stroke="none">
<path d="M4715 8695 c-607 -65 -1113 -249 -1625 -590 -459 -306 -884 -760
-1157 -1235 -269 -467 -418 -928 -474 -1465 -16 -152 -16 -563 0 -720 60 -588
219 -1072 512 -1562 178 -296 466 -639 729 -867 378 -328 810 -574 1255 -714
381 -120 718 -172 1120 -172 867 0 1638 264 2280 780 467 374 845 855 1067
1356 297 671 396 1460 272 2174 -36 205 -132 533 -220 751 -48 121 -182 394
-229 469 -303 486 -693 899 -1111 1178 -369 246 -706 402 -1106 512 -140 38
-261 61 -503 96 -156 22 -639 27 -810 9z m858 -336 c220 -30 565 -117 574
-144 1 -6 -40 -68 -93 -140 -53 -71 -161 -218 -240 -326 l-144 -197 -80 20
-80 20 0 128 0 127 73 -13 c39 -6 73 -11 74 -10 11 10 80 233 74 239 -10 10
-186 43 -306 57 -55 6 -115 13 -132 16 l-33 5 0 126 0 125 88 -7 c48 -4 149
-15 225 -26z m-887 -41 c-3 -29 -6 -87 -6 -129 l0 -76 -117 -22 c-65 -12 -134
-26 -154 -31 l-36 -10 25 -118 c13 -64 25 -118 26 -119 1 -1 44 7 96 17 52 11
107 20 123 20 l27 0 0 -123 0 -123 -97 -18 c-223 -39 -434 -112 -677 -232
-222 -111 -498 -307 -651 -463 -33 -34 -65 -61 -71 -61 -6 0 -81 68 -167 150
l-155 150 -64 -72 c-112 -127 -288 -362 -277 -372 2 -2 36 -25 74 -51 39 -26
113 -80 165 -119 52 -39 97 -71 99 -73 2 -1 -14 -31 -36 -65 -22 -35 -50 -80
-62 -100 -26 -44 -30 -45 -62 -19 -32 24 -315 201 -323 201 -8 0 -106 -196
-106 -212 0 -7 29 -27 65 -44 35 -17 118 -62 184 -99 l120 -68 -21 -51 c-46
-112 -107 -296 -129 -388 l-23 -98 -208 0 -208 0 0 -145 0 -145 -136 0 -137 0
7 93 c24 338 96 670 203 937 260 649 715 1215 1275 1586 434 287 855 456 1314
528 138 21 128 24 120 -36z m497 -498 c45 -39 61 -79 54 -136 -3 -33 -13 -54
-36 -78 l-31 -32 -2 -304 -3 -305 -72 -3 -72 -3 -7 48 c-4 26 -4 164 -1 305 7
250 6 258 -13 268 -25 14 -60 81 -60 116 0 41 36 106 72 132 24 16 47 22 85
22 44 0 58 -5 86 -30z m914 -216 c-30 -72 -133 -400 -328 -1044 -28 -91 -54
-175 -60 -188 -5 -13 -34 -101 -63 -195 -197 -624 -276 -880 -276 -888 0 -6
137 -9 380 -7 209 2 380 2 380 0 0 -1 -81 -109 -180 -240 -99 -130 -229 -302
-290 -382 -60 -80 -172 -228 -249 -330 -125 -165 -334 -445 -611 -821 -52 -70
-222 -298 -376 -506 -155 -208 -298 -404 -318 -436 -21 -32 -39 -57 -42 -55
-2 2 12 45 30 95 19 50 66 191 106 314 39 123 109 341 155 484 184 576 238
744 338 1060 l104 330 -387 5 -388 5 86 116 c48 64 159 214 247 333 88 120
306 415 485 656 716 965 1094 1485 1250 1722 14 20 26 35 28 33 2 -1 -8 -29
-21 -61z m440 -100 c146 -89 281 -186 387 -280 l88 -78 80 82 c45 45 83 82 87
82 4 0 46 -40 95 -89 l88 -88 -132 -119 c-72 -65 -149 -134 -171 -153 l-39
-34 -88 85 c-48 46 -123 113 -167 148 -89 70 -305 215 -375 250 -25 12 -47 24
-49 26 -7 6 72 234 80 234 5 0 57 -30 116 -66z m-1055 -191 c-6 -3 -10 -8 -7
-13 2 -4 -5 -16 -17 -26 -12 -11 -18 -13 -14 -6 4 7 1 12 -8 12 -18 0 -21 16
-6 25 6 4 8 10 6 14 -3 4 9 5 27 3 18 -3 26 -7 19 -9z m-57 -75 c4 4 -7 -17
-25 -45 -43 -71 -55 -77 -46 -22 8 51 33 84 51 69 6 -5 15 -6 20 -2z m-1255
-155 c23 -58 110 -251 125 -280 1 -2 42 15 91 37 95 42 296 98 366 102 l43 3
3 -122 3 -122 27 5 c15 3 73 8 130 12 78 6 101 5 98 -4 -5 -13 -179 -254 -322
-445 -43 -58 -117 -158 -164 -221 -54 -74 -102 -128 -132 -148 -69 -47 -189
-175 -240 -255 -25 -38 -60 -106 -78 -150 -25 -62 -68 -128 -194 -295 -211
-283 -410 -544 -496 -653 -39 -49 -67 -93 -64 -98 3 -5 214 -9 496 -9 463 0
490 -1 483 -17 -3 -10 -25 -75 -48 -145 -22 -70 -44 -125 -49 -122 -4 3 -5 -1
-2 -9 3 -8 -4 -43 -15 -78 -10 -35 -40 -134 -66 -219 -57 -189 -152 -471 -161
-479 -4 -3 -3 4 0 16 5 15 2 24 -10 31 -9 5 -17 21 -17 37 -2 22 -18 41 -74
86 -141 116 -379 398 -478 567 -20 34 -39 61 -43 59 -4 -3 -50 -30 -104 -61
-53 -31 -101 -56 -106 -56 -6 0 -25 31 -42 69 -18 39 -39 72 -46 75 -8 3 -14
11 -14 18 0 9 3 9 11 -2 9 -13 10 -13 5 0 -85 251 -146 496 -130 521 3 5 129
9 280 9 254 0 274 1 274 18 0 9 -5 51 -10 92 -6 40 -10 144 -11 230 -1 132 3
173 25 275 26 122 87 320 125 409 24 55 116 200 168 263 19 24 31 48 27 54 -4
7 -3 9 4 5 6 -3 54 37 109 91 86 86 166 153 242 203 l23 15 -71 115 c-39 63
-74 122 -79 130 -7 11 -25 3 -92 -45 -73 -53 -263 -229 -315 -292 -18 -22 -18
-24 1 -45 l19 -23 -21 18 c-21 17 -22 17 -62 -35 -22 -29 -58 -82 -81 -117
-23 -36 -48 -66 -56 -67 -8 -1 -13 1 -11 4 2 4 -46 40 -107 81 -133 88 -247
172 -247 182 0 4 26 40 57 80 178 231 391 432 620 585 109 72 333 194 358 194
7 0 27 -35 45 -77z m3604 -58 c51 -67 260 -398 272 -430 3 -8 -18 -26 -53 -46
-136 -77 -412 -246 -461 -282 -30 -21 -55 -37 -56 -35 -2 1 -20 32 -41 68 -21
36 -49 79 -62 96 -13 17 -23 35 -23 40 1 5 32 31 70 58 39 27 70 54 70 59 0
13 -39 65 -107 144 -29 33 -53 63 -53 66 0 5 375 332 386 336 1 1 27 -33 58
-74z m-1279 -187 c-21 -24 -43 -47 -48 -53 -19 -18 16 29 46 62 18 20 26 36
22 45 -6 10 -5 10 5 1 11 -10 6 -20 -25 -55z m-1412 -83 c-3 -9 -8 -14 -10
-11 -3 3 -2 9 2 15 9 16 15 13 8 -4z m1076 -55 c-2 -27 -3 -50 -5 -50 -1 0 -8
8 -15 17 -10 11 -10 14 -2 9 9 -5 12 -1 11 11 -2 29 2 63 7 63 4 0 5 -22 4
-50z m761 28 c55 -38 75 -73 74 -129 -2 -132 -160 -195 -255 -101 -50 51 -58
99 -27 161 43 83 140 115 208 69z m-770 -84 c8 -8 21 -19 31 -25 15 -7 17 -6
13 6 -4 8 -1 15 5 15 11 0 15 -13 11 -39 -1 -9 4 -12 15 -8 11 5 22 -3 35 -26
11 -18 33 -43 50 -55 92 -68 277 -268 350 -377 18 -27 38 -54 45 -60 6 -5 36
-50 65 -100 30 -49 55 -92 56 -93 2 -2 34 15 73 38 43 25 69 46 65 52 -4 7 -2
8 4 4 6 -4 25 0 41 9 17 8 32 15 34 15 2 0 22 -39 45 -87 66 -145 147 -414
154 -513 l3 -45 -270 -8 c-148 -5 -271 -10 -272 -11 -2 -1 2 -41 8 -87 13 -95
6 -403 -10 -459 -6 -19 -24 -89 -40 -155 -17 -66 -39 -147 -51 -179 -11 -33
-20 -61 -20 -62 0 -2 58 -33 129 -69 l129 -64 32 82 c27 70 76 236 108 367 l8
35 125 -4 c68 -2 125 -4 127 -6 5 -5 -31 -175 -58 -276 -35 -127 -108 -319
-121 -319 -5 0 -54 23 -109 50 -103 52 -120 57 -120 39 0 -5 -25 -54 -56 -107
-50 -87 -54 -98 -39 -107 10 -5 40 -25 66 -42 27 -18 51 -33 54 -33 3 0 11 -5
18 -10 7 -6 60 -43 119 -84 80 -56 109 -71 118 -62 33 31 -25 -50 -106 -149
-380 -462 -863 -756 -1431 -874 -56 -12 -106 -21 -111 -21 -9 0 -17 33 -53
227 -13 67 -21 124 -18 127 2 2 58 16 123 31 66 15 158 40 205 57 172 60 394
186 535 302 80 66 265 246 278 270 8 15 -5 33 -88 117 l-99 99 -76 -79 c-224
-229 -495 -390 -787 -467 -109 -28 -279 -54 -364 -54 l-57 0 122 161 c67 88
156 205 197 259 41 55 100 133 130 175 41 57 67 82 105 102 135 69 254 167
337 277 78 104 132 219 167 355 l28 109 119 152 c65 83 175 225 244 315 69 90
162 211 208 268 45 58 82 107 82 111 0 3 -221 6 -492 6 -270 0 -493 1 -495 4
-5 5 105 394 117 416 8 13 9 13 10 0 0 -9 20 -32 43 -52 l44 -36 64 76 c35 41
76 90 91 108 l28 32 -95 73 c-52 39 -95 78 -95 84 0 25 91 295 99 295 5 0 14
-7 21 -16z m2068 -431 c112 -304 174 -590 197 -910 l7 -93 -136 0 -136 0 0
123 c0 185 23 167 -211 167 l-198 0 -10 38 c-5 20 -12 53 -16 72 -11 54 -80
267 -113 347 l-30 73 32 19 c17 10 83 47 146 81 125 68 278 152 350 193 25 14
50 25 56 26 7 1 35 -61 62 -136z m-4980 -324 c58 -33 108 -62 110 -64 2 -2 -3
-16 -11 -32 -23 -44 -74 -209 -97 -308 -11 -49 -22 -100 -25 -112 -5 -22 -9
-23 -131 -23 -101 0 -126 3 -130 15 -9 22 32 203 76 335 34 105 91 250 98 250
1 0 51 -27 110 -61z m-461 -331 c-3 -8 -6 -5 -6 6 -1 11 2 17 5 13 3 -3 4 -12
1 -19z m-30 -140 c-3 -8 -6 -5 -6 6 -1 11 2 17 5 13 3 -3 4 -12 1 -19z m4710
-20 c-3 -8 -6 -5 -6 6 -1 11 2 17 5 13 3 -3 4 -12 1 -19z m-4713 -13 c3 -8 1
-15 -4 -15 -6 0 -10 7 -10 15 0 8 2 15 4 15 2 0 6 -7 10 -15z m139 -12 c-24
-2 -62 -2 -85 0 -24 2 -5 4 42 4 47 0 66 -2 43 -4z m4534 0 c-20 -2 -52 -2
-70 0 -17 2 0 4 38 4 39 0 53 -2 32 -4z m-4887 -183 c11 0 35 -13 53 -30 l35
-30 181 0 c119 0 180 3 176 10 -4 6 29 10 92 9 64 -1 89 -4 73 -9 -22 -7 -21
-8 13 -9 l37 -1 0 -80 0 -80 -283 0 c-276 0 -284 -1 -303 -21 -34 -37 -73 -52
-131 -47 -132 11 -180 163 -80 257 26 24 81 42 105 35 8 -2 22 -4 32 -4z
m5245 -19 c41 -23 78 -95 72 -143 -9 -67 -53 -113 -126 -129 -52 -12 -89 0
-128 39 l-35 34 -276 -3 -277 -4 -3 86 -3 87 36 6 c50 10 225 5 225 -5 0 -5
72 -9 160 -9 88 0 160 4 160 9 0 13 50 43 85 51 36 9 70 3 110 -19z m-5737
-427 l3 -141 209 -8 c116 -4 210 -9 210 -12 0 -2 11 -59 25 -126 27 -129 56
-226 111 -369 19 -48 34 -91 34 -96 0 -4 -30 -23 -67 -41 -38 -18 -117 -60
-178 -94 -60 -33 -148 -81 -195 -105 -47 -25 -97 -53 -112 -63 -45 -32 -37
-42 -110 156 -87 241 -157 555 -183 821 -8 86 -15 172 -15 191 l0 34 133 -3
132 -3 3 -141z m6381 130 c15 -13 -56 -544 -75 -563 -4 -5 -246 61 -353 95
-61 19 -71 18 -71 -10 0 -17 -12 -34 -35 -52 -46 -34 -62 -89 -43 -147 18 -55
54 -79 125 -84 63 -4 303 -90 303 -108 0 -29 -107 -325 -118 -325 -9 0 -227
112 -232 120 -3 4 -83 48 -177 99 -95 52 -173 96 -173 100 0 4 18 55 39 112
38 100 97 311 120 429 l11 55 199 -3 198 -3 6 83 c4 46 7 110 7 144 0 33 3 64
6 67 7 6 255 -2 263 -9z m-697 -1223 c92 -60 96 -64 86 -87 -6 -13 -15 -24
-19 -24 -4 0 -14 -11 -21 -24 -24 -42 -67 -104 -78 -111 -7 -4 15 -26 52 -53
35 -25 84 -62 109 -83 25 -21 50 -35 54 -31 15 13 -7 -22 -78 -124 l-71 -101
-235 217 c-130 119 -242 224 -249 233 -12 14 -2 33 65 136 43 66 90 140 105
166 l28 46 77 -49 c43 -26 122 -76 175 -111z m-4974 118 c9 -18 57 -92 106
-166 l88 -134 -39 -37 c-21 -20 -83 -77 -138 -127 -149 -134 -225 -204 -274
-251 l-45 -42 -35 46 c-19 26 -38 49 -41 52 -21 18 -68 95 -63 103 3 5 85 68
182 139 97 72 179 133 183 137 4 3 -10 31 -31 61 -21 30 -50 76 -65 102 l-27
47 83 50 c46 27 87 50 91 50 4 1 16 -13 25 -30z m710 -199 c127 -78 76 -270
-72 -270 -92 0 -154 65 -144 153 13 109 127 171 216 117z m530 -265 c-3 -3 -9
2 -12 12 -6 14 -5 15 5 6 7 -7 10 -15 7 -18z m-745 -129 c163 -152 370 -302
514 -375 l62 -31 -18 -42 c-9 -24 -26 -70 -35 -103 -10 -33 -22 -64 -27 -69
-19 -21 -429 243 -566 365 -15 13 -38 32 -51 41 -13 9 -53 44 -89 79 l-65 63
84 83 c46 45 84 83 86 83 2 0 49 -42 105 -94z m3896 14 l81 -74 -47 -49 c-50
-51 -290 -260 -333 -290 -376 -262 -600 -368 -1010 -482 -52 -14 -96 -28 -98
-30 -3 -2 3 -41 12 -87 8 -46 18 -100 22 -121 5 -29 10 -36 23 -33 9 3 61 17
116 31 504 133 950 398 1397 833 38 37 72 68 76 70 4 1 47 -38 96 -87 76 -76
87 -91 78 -108 -24 -45 -267 -262 -442 -395 -528 -403 -1116 -630 -1767 -683
l-83 -7 0 134 0 135 118 7 c64 4 120 10 124 14 4 4 8 118 10 254 l3 247 70 11
c168 27 396 96 585 176 278 119 557 304 770 511 58 56 108 101 111 100 3 -1
43 -36 88 -77z m-3349 60 c0 -5 -5 -10 -11 -10 -5 0 -7 5 -4 10 3 6 8 10 11
10 2 0 4 -4 4 -10z m158 -65 c-3 -3 -9 2 -12 12 -6 14 -5 15 5 6 7 -7 10 -15
7 -18z m-178 -46 c0 -6 7 -8 17 -5 10 4 14 4 10 0 -4 -4 -1 -14 6 -23 6 -8 -3
-5 -20 8 -34 23 -40 31 -23 31 6 0 10 -5 10 -11z m140 -61 c0 -28 -15 -37 -35
-21 -20 15 -19 15 3 10 18 -4 22 -2 18 9 -3 8 -1 14 4 14 6 0 10 -6 10 -12z
m-1044 -164 c8 3 13 0 11 -6 -1 -7 5 -12 13 -13 8 0 14 -6 13 -12 -3 -15 103
-110 280 -253 146 -116 297 -222 410 -284 37 -21 67 -41 67 -44 0 -4 -19 -62
-42 -129 -33 -95 -46 -122 -58 -117 -8 3 -74 41 -146 86 -251 155 -483 331
-668 508 l-128 124 97 93 96 94 21 -26 c11 -14 27 -24 34 -21z m1814 -93 c0
-6 -11 -23 -25 -38 l-26 -28 23 37 c25 40 28 43 28 29z m28 -68 c-10 -2 -26
-2 -35 0 -10 3 -2 5 17 5 19 0 27 -2 18 -5z m59 -9 c-3 -3 -12 -4 -19 -1 -8 3
-5 6 6 6 11 1 17 -2 13 -5z m581 -11 c-10 -2 -26 -2 -35 0 -10 3 -2 5 17 5 19
0 27 -2 18 -5z m-805 -233 c48 -11 97 -20 107 -20 19 0 20 -8 20 -130 0 -130
0 -130 -22 -126 -128 26 -131 27 -320 80 l-58 17 78 104 c50 68 82 102 92 100
8 -3 55 -14 103 -25z m626 -18 c40 -29 71 -81 71 -119 0 -112 -102 -180 -203
-135 -115 51 -117 202 -4 265 39 21 99 17 136 -11z m-872 -426 c172 -50 400
-93 526 -102 l107 -7 0 -134 0 -135 -82 6 c-197 16 -442 58 -623 106 -124 33
-295 91 -295 100 0 4 25 38 56 75 30 38 69 87 85 111 l30 44 37 -15 c20 -8 92
-30 159 -49z"/>
<path d="M4085 7958 c-16 -5 -43 -16 -60 -23 -16 -7 -57 -24 -90 -38 -180 -76
-470 -242 -628 -360 -120 -90 -279 -227 -275 -237 2 -4 38 -40 80 -80 l77 -71
82 63 c318 246 576 401 804 484 55 20 103 39 108 43 4 4 -1 32 -12 63 -10 30
-25 80 -32 112 -6 31 -15 56 -18 55 -3 0 -19 -5 -36 -11z"/>
<path d="M2205 5989 c-17 -5 -43 -21 -58 -37 -78 -81 -15 -212 102 -212 86 0
147 103 105 179 -33 60 -90 87 -149 70z"/>
<path d="M5440 7299 c0 -5 5 -7 10 -4 6 3 10 8 10 11 0 2 -4 4 -10 4 -5 0 -10
-5 -10 -11z"/>
<path d="M5382 7228 c-16 -16 -15 -28 2 -28 16 0 29 27 17 34 -4 3 -13 0 -19
-6z"/>
<path d="M7925 5989 c-51 -14 -87 -61 -93 -117 -4 -46 -1 -53 29 -86 34 -37
81 -55 126 -48 51 8 108 97 97 151 -7 33 -66 101 -89 101 -7 0 -19 2 -27 4 -7
2 -27 0 -43 -5z"/>
<path d="M2156 4329 c-59 -54 -62 -127 -9 -185 36 -40 57 -46 104 -34 80 22
124 86 108 159 -12 55 -49 83 -112 89 -51 4 -57 2 -91 -29z"/>
</g>
</svg>
